<svg xmlns="http://www.w3.org/2000/svg" width="70" height="70" viewBox="0 0 70 70">
  <defs>
    <style>
      .cls-1 {
        fill: #c4b7f1;
      }
    </style>
  </defs>
  <g id="Group_6" data-name="Group 6" transform="translate(-1813 -15)">
    <path id="Path_7" data-name="Path 7" class="cls-1" d="M12.769,29.584a58.792,58.792,0,0,1,9.444,0,38.517,38.517,0,0,1,5.1.641c3.646.738,6.026,1.943,7.045,3.885a5.377,5.377,0,0,1,0,4.837c-1.02,1.943-3.305,3.224-7.083,3.885a36.611,36.611,0,0,1-5.1.66,43.477,43.477,0,0,1-4.779.175h-2.89a13.774,13.774,0,0,0-1.757-.117,34.909,34.909,0,0,1-5.1-.641C4,42.21,1.625,40.967.6,39.024A5.327,5.327,0,0,1,0,36.577,5.268,5.268,0,0,1,.586,34.11c1-1.943,3.381-3.205,7.064-3.885A37.3,37.3,0,0,1,12.769,29.584ZM17.473,0A11.632,11.632,0,0,1,28.938,11.791,11.632,11.632,0,0,1,17.473,23.582,11.632,11.632,0,0,1,6.007,11.791,11.632,11.632,0,0,1,17.473,0Z" transform="translate(1830.533 27.667)"/>
    <path id="Rectangle_20" data-name="Rectangle 20" class="cls-1" d="M21,5A16,16,0,0,0,5,21V49A16,16,0,0,0,21,65H49A16,16,0,0,0,65,49V21A16,16,0,0,0,49,5H21m0-5H49A21,21,0,0,1,70,21V49A21,21,0,0,1,49,70H21A21,21,0,0,1,0,49V21A21,21,0,0,1,21,0Z" transform="translate(1813 15)"/>
  </g>
</svg>
