<svg xmlns="http://www.w3.org/2000/svg" xmlns:xlink="http://www.w3.org/1999/xlink" width="245.938" height="68.276" viewBox="0 0 245.938 68.276">
  <defs>
    <style>
      .cls-1 {
        fill: #8c8aff;
      }

      .cls-2 {
        fill: #b2b1ff;
      }

      .cls-3 {
        fill: #d8d8ff;
      }

      .cls-4 {
        filter: url(#Brand_Logos-2);
      }

      .cls-5 {
        filter: url(#Brand_Logos);
      }

      .cls-6 {
        filter: url(#Union_1);
      }
    </style>
    <filter id="Union_1" x="0" y="0" width="67.273" height="68.276" filterUnits="userSpaceOnUse">
      <feOffset dx="3" dy="3" input="SourceAlpha"/>
      <feGaussianBlur stdDeviation="3" result="blur"/>
      <feFlood flood-opacity="0.161"/>
      <feComposite operator="in" in2="blur"/>
      <feComposite in="SourceGraphic"/>
    </filter>
    <filter id="Brand_Logos" x="84.976" y="0" width="44.109" height="68.276" filterUnits="userSpaceOnUse">
      <feOffset dx="3" dy="3" input="SourceAlpha"/>
      <feGaussianBlur stdDeviation="3" result="blur-2"/>
      <feFlood flood-opacity="0.161"/>
      <feComposite operator="in" in2="blur-2"/>
      <feComposite in="SourceGraphic"/>
    </filter>
    <filter id="Brand_Logos-2" x="146.788" y="0" width="99.149" height="68.276" filterUnits="userSpaceOnUse">
      <feOffset dx="3" dy="3" input="SourceAlpha"/>
      <feGaussianBlur stdDeviation="3" result="blur-3"/>
      <feFlood flood-opacity="0.161"/>
      <feComposite operator="in" in2="blur-3"/>
      <feComposite in="SourceGraphic"/>
    </filter>
  </defs>
  <g id="LoginOptions" transform="translate(-190.995 -695)">
    <g id="Group_2" data-name="Group 2" transform="translate(196.995 701)">
      <g class="cls-6" transform="matrix(1, 0, 0, 1, -6, -6)">
        <path id="Union_1-2" data-name="Union 1" class="cls-1" d="M-2232.9-507.733a25.123,25.123,0,0,1-22.459-13.846l8.4-6.512a15.189,15.189,0,0,0,1.624,3.392,15.162,15.162,0,0,0,20.95,4.57l-.024.013.024-.013a11.566,11.566,0,0,0,5.016-7.586H-2232.9v-9.721h23.67a28.962,28.962,0,0,1,.457,5.141,24.515,24.515,0,0,1-7.494,18.472,24,24,0,0,1-15.983,6.1C-2232.464-507.724-2232.682-507.727-2232.9-507.733Zm-22.459-36.419,8.4,6.511a14.869,14.869,0,0,0,0,9.551l-8.4,6.512A25.165,25.165,0,0,1-2255.358-544.153Zm0,0A25.123,25.123,0,0,1-2232.9-558a24.15,24.15,0,0,1,16.815,6.546l-7.208,7.209A13.58,13.58,0,0,0-2232.9-548a14.977,14.977,0,0,0-14.062,10.362Z" transform="translate(2264.03 564)"/>
      </g>
    </g>
    <g class="cls-5" transform="matrix(1, 0, 0, 1, 191, 695)">
      <path id="Brand_Logos-3" data-name="Brand Logos" class="cls-2" d="M23.56,52.275V29.342h7.7L32.411,20.4H23.56V14.7c0-2.588.719-4.351,4.429-4.351l4.733,0V2.352A63.431,63.431,0,0,0,25.826,2C19,2,14.331,6.165,14.331,13.814v6.591H6.614v8.937h7.717V52.275Z" transform="translate(84.36 4)"/>
    </g>
    <g class="cls-4" transform="matrix(1, 0, 0, 1, 191, 695)">
      <path id="Brand_Logos-4" data-name="Brand Logos" class="cls-3" d="M36.069,28.99h-.439l.976-.537a9.468,9.468,0,0,0,4.442-4.881,14.056,14.056,0,0,0,.586-6.882A11.421,11.421,0,0,0,34.6,7.368a19.184,19.184,0,0,0-7.81-1.562H2V55.933H24.647A38.336,38.336,0,0,0,31.09,55.4a14.057,14.057,0,0,0,10.787-8,15.181,15.181,0,0,0,1.22-9.762A10.933,10.933,0,0,0,36.069,28.99ZM13.763,14.543h9.762a18.945,18.945,0,0,1,4.881.634,4.2,4.2,0,0,1,3.221,3.758,7.712,7.712,0,0,1,0,3.026,4.051,4.051,0,0,1-2.1,2.636,10.055,10.055,0,0,1-4.881,1.074H13.665ZM32.652,42.559a5.662,5.662,0,0,1-4.881,4.588,17.7,17.7,0,0,1-3.221.342H13.665V34.213H25.282a11.034,11.034,0,0,1,3.661.634,5.321,5.321,0,0,1,3.71,4.881,10.342,10.342,0,0,1,0,2.831Zm50.468-3.27c.049-.1.049-.2-.1-.1V33.773a17.768,17.768,0,0,0-1.66-7.175,15.13,15.13,0,0,0-7.809-7.516A20.844,20.844,0,0,0,61.6,17.911,15.765,15.765,0,0,0,48.564,29.332a27.187,27.187,0,0,0-.586,14.057,14.2,14.2,0,0,0,3.514,7.029,18.353,18.353,0,0,0,8.4,4.881,22.115,22.115,0,0,0,9.42.488,16.256,16.256,0,0,0,10.2-5.369,12.842,12.842,0,0,0,2.88-4.881,2.122,2.122,0,0,0,.341-1.416H73.163a.488.488,0,0,0-.488.293,6.931,6.931,0,0,1-4.881,3.661,10.88,10.88,0,0,1-4.393,0,7.711,7.711,0,0,1-5.808-4.295,9.762,9.762,0,0,1-.83-2.929V39.289ZM57.349,32.26a18.319,18.319,0,0,1,.781-2.294,7.029,7.029,0,0,1,6.394-4.393,9.278,9.278,0,0,1,4.246.586,7.224,7.224,0,0,1,4.588,5.857v1.025l-16.009.146a8.512,8.512,0,0,1,0-.927Zm17.913-24.4h-20.3v5.857l20.3-.049Z" transform="translate(150.79 0.2)"/>
    </g>
  </g>
</svg>
