<svg xmlns="http://www.w3.org/2000/svg" width="24.31" height="25.255" viewBox="0 0 24.31 25.255">
  <defs>
    <style>
      .cls-1 {
        fill: #fff;
      }
    </style>
  </defs>
  <path id="Path_14" data-name="Path 14" class="cls-1" d="M24.291,11.244,7.275,2.4a3.542,3.542,0,0,0-4.144.653,3.9,3.9,0,0,0-.815,4.273l2.917,6.783h0a1.387,1.387,0,0,1,0,1.036L2.316,21.93a3.918,3.918,0,0,0,.273,3.6A3.614,3.614,0,0,0,5.646,27.26a3.7,3.7,0,0,0,1.641-.4L24.3,18.015a3.858,3.858,0,0,0,0-6.77Zm-1.082,4.509L6.193,24.6a1.181,1.181,0,0,1-1.369-.229,1.3,1.3,0,0,1-.272-1.413l2.9-6.783a2.591,2.591,0,0,0,.1-.278h8.374a1.264,1.264,0,0,0,0-2.526H7.554a2.591,2.591,0,0,0-.1-.278l-2.9-6.783a1.3,1.3,0,0,1,.272-1.413,1.181,1.181,0,0,1,1.369-.229l17.016,8.842a1.286,1.286,0,0,1,0,2.248Z" transform="translate(-2.001 -2.006)"/>
</svg>
