<svg xmlns="http://www.w3.org/2000/svg" width="38.761" height="55.374" viewBox="0 0 38.761 55.374">
  <defs>
    <style>
      .cls-1 {
        fill: #707070;
      }
    </style>
  </defs>
  <path id="Path_12" data-name="Path 12" class="cls-1" d="M40.993,2H7.769A2.769,2.769,0,0,0,5,4.769V54.6a2.769,2.769,0,0,0,4.568,2.1L24.381,44.278,39.027,56.571a2.769,2.769,0,0,0,1.966.8,2.326,2.326,0,0,0,1.052-.221A2.769,2.769,0,0,0,43.761,54.6V4.769A2.769,2.769,0,0,0,40.993,2ZM38.224,48.68,26.153,38.547a2.769,2.769,0,0,0-3.544,0L10.537,48.68V7.537H38.224Z" transform="translate(-5 -2)"/>
</svg>
